<?xml version="1.0" encoding="UTF-8"?>
<svg id="Capa_1" data-name="Capa 1" xmlns="http://www.w3.org/2000/svg" viewBox="0 0 623.84 112.8">
  <defs>
    <style>
      .cls-1 {
        fill: #29366d;
      }

      .cls-2 {
        fill: #5e3d59;
      }
    </style>
  </defs>
  <path class="cls-2" d="M66.77.2h-9.87c-4.28,6.61-7.75,13.51-10.99,20.83-2.27,5.14-4.85,9.8-7.68,14.64-5.38,9.17-6.28,17.18-14.12,26.89l-12.54,15.52c-4.53,5.6-7.92,11.78-11.57,17.98l.29,7.6c3.35-8.08,7.72-15.17,13.38-21.92l12.2-14.55c-.27,3.2-1.89,5.08-3.15,7.59-4.11,8.19-8.62,16.34-10.27,25.51-.71,3.97.66,7.84-.8,11.87l4.07.08c.6-4.29,1.06-7.99,1.87-12.17,1.12-5.76,3.81-11.11,6.23-16.46,1.66-3.68,3.1-7.39,5.63-10.48l3.08-3.77c.36,6.42-.35,12.25-.79,18.54-.61,8.59-1.45,16.56-5.59,24.33l9.44.04,1.59-12.65,1.57-36.62,1.14-9.07c1.04-8.22,2.42-18.42,6.9-25.08,3.57,3.87,4.44,8.3,5.73,12.95,2.68,9.68,4.99,19.2,6.6,29.12.74,4.54-.04,8.46-1.33,12.78-2.96,9.86-6.1,19.21-10.66,28.48l5.3.03,6.68-17.32c3.59-9.31,4.5-18.43,3.01-28.37-.67-4.47-.39-9.14-1.55-13.65l-4.88-18.94c-3.88-15.07,2.06-18.7,8.49-29.37l2.58-4.37h0Z"/>
  <path class="cls-2" d="M83.38.19h-12.98l.41,11.89,1.15,10.65,1.4,13.24c.99,9.41,1.62,19,.32,28.51l-1.36,9.93c-.64,4.69-.93,9.21-.94,13.98-.02,7.99-2.09,16.67-5.12,23.85l7.81.02c.1-5.69.74-10.8,1.19-16.3l1.75-21.51c1-12.32,1.23-24.44.85-36.91l.02-29.08.97-2.16c4.37,7.74,6.8,15.45,8.58,23.87.74,4.07,1.6,7.82,3.75,11.58.41,15.81-2.28,31.24-1.69,47.15.31,8.55-.4,15.13-3.23,23.39l4.56-.1.91-3.17,2.02,3.26,4.48-.08c-5.45-11.82-5.32-25.73-4.76-38.84.32-7.43.2-14.42,1.85-22.25l10.31,21.73c2.3,4.86,3.46,9.07,3.67,14.62.18,4.71,1.06,9.74,1.98,14.33l2.09,10.42,3.33-.03-3.07-15.86c-.64-3.39-1.52-6.42-.56-10.54l9.53,16.69,5.32,9.82,3.66-.19-8.62-15.63c-6.65-12.05-9.74-23.47-17.39-36.08-6.97-11.5-11.05-23.64-15.06-36.31l-5.85-18.46-1.21-5.41-.07-.02Z"/>
  <path class="cls-2" d="M147.52,109.89c-4.07-7.93-10.44-14.62-14.57-21.92l-5.67-10.04c-3.38-5.99-7.32-11.62-9.7-18.11l-4.35-11.84c-1.95-5.32-3.66-10.78-4.23-16.52-.75-7.6-.91-14.76-1.06-22.6,1.95,1.11,2.48,2.67,3.34,4.23,5.4,9.84,4.84,16.48,6.89,24.73l3.12,12.5c1.8,7.23,4.21,14.07,8,20.59l9.32,16.03,8.92,17.23v-7.82c-3.08-5.53-5.38-11.4-8.73-16.85-4.57-7.44-9.08-14.41-11.38-22.98-.45-1.69-3.37-5.42-4.37-10.9s-.86-10.22-.79-15.47c9.26,7.69,18.31,15.81,25.28,24.76v-9.39l-3.14-3.25-13.69-12.82c-4.51-4.22-8.37-8.7-11.18-14.24L112.45.2h-11.42c1.75,14.32-1.75,24.66,4.54,38.87,4.72,10.67,7.72,22.61,12.73,32.43,1.17,2.29,2.84,4.47,4.27,6.66,4.74,7.27,9.16,14.48,11.83,22.78l3.6,11.19,3.87.19-.78-7.02,4.41,6.99,2.15.51-.12-2.89v-.02Z"/>
  <path class="cls-2" d="M41.85.19l-1,2.24-3.92,6.02-13.11,18.01c-3.45,4.74-6.81,9.55-9.45,14.87-4.09,8.25-3.61,17.26-14.26,21.58l.08,9.53v11l4.6-8.62c4.21-7.88,7.91-15.75,11.1-24.18,2.65-7,6.55-13.21,10.57-19.44l6.96-10.8c4.34-6.73,11.5-12.23,15.12-20.21h-6.69Z"/>
  <path class="cls-2" d="M20.56.2l-6.75,3.83L.23,11.99l-.11,7.43,8.21-3.09c.46-.17,1.75.36,1.71.79l-.15,1.6C7.08,22.92,3.99,26.39.13,29.98l.08,10.02c6.15-6.23,11.08-12.75,15.39-20.26.99-5.27,4.03-9.32,8.48-12.23,2.77-1.89,5.66-3.25,8.65-4.82L37.17.2h-16.61,0Z"/>
  <path class="cls-2" d="M147.52,17.52c-4.49-6.19-9.36-11.9-14.5-17.33h-12.24l9.74,7.15c7.02,4.86,13.35,10.77,16.99,18.48v-8.31h.01Z"/>
  <polygon class="cls-2" points="147.52 7.65 147.52 .19 142.03 .19 146.57 6.38 147.52 7.65"/>
  <g>
    <path class="cls-2" d="M202.47,5.21c-7.16-2.75-13.91-4.13-20.24-4.13s-11.27,1.34-14.81,4.01-5.31,6.37-5.31,11.09c0,5.74,2.99,10.19,8.97,13.33,2.67,1.34,5.6,2.58,8.79,3.72,3.19,1.14,6.39,2.42,9.62,3.83,3.23,1.42,6.17,3.03,8.85,4.84,2.67,1.81,4.84,4.31,6.49,7.49,1.65,3.19,2.48,7.24,2.48,12.15s-1.38,9.11-4.13,12.57-6.08,5.8-9.97,7.02c-3.89,1.22-8.44,1.83-13.63,1.83-9.68,0-17.94-2.4-24.78-7.2l.59-.94c2.6,2.05,5.96,3.72,10.09,5.02s8.36,1.95,12.69,1.95c6.37,0,11.82-1.48,16.34-4.43s6.79-7.3,6.79-13.04c0-6.29-2.99-11.21-8.97-14.75-2.68-1.57-5.6-3.03-8.79-4.37-3.19-1.34-6.39-2.73-9.62-4.19-3.23-1.46-6.18-3.09-8.85-4.9-5.98-3.93-8.97-9.52-8.97-16.76,0-5.74,1.93-10.4,5.78-13.98,3.85-3.58,9.66-5.37,17.41-5.37s15.63,1.34,23.66,4.01l-.47,1.18v.02Z"/>
    <path class="cls-2" d="M218.51,69.29c0,6.22,1.65,10.19,4.96,11.92,1.57.79,3.58,1.18,6.02,1.18,4.96,0,9.38-1.89,13.27-5.66,3.89-3.78,6-7.28,6.31-10.5V23.87h8.26v50.62c0,2.28.45,4.03,1.36,5.25.9,1.22,1.83,1.87,2.77,1.95l1.3.24h3.66v.94h-7.2c-3.23,0-5.68-.71-7.38-2.12-1.69-1.42-2.58-2.83-2.65-4.25l-.12-2.01v-5.07c-1.42,3.38-3.93,6.55-7.55,9.5s-7.57,4.42-11.86,4.42-7.79-.41-10.5-1.24-4.66-1.99-5.84-3.48c-2.05-2.44-3.07-5.58-3.07-9.44V23.87h8.26v45.43h0Z"/>
    <path class="cls-2" d="M300.88,27.99c-1.26-1.02-3.29-1.89-6.08-2.6-2.79-.71-4.9-1.06-6.31-1.06h-2.48c-4.25.08-7.32,1.16-9.2,3.25-1.89,2.09-2.83,4.42-2.83,7.02s.83,4.78,2.48,6.55c1.65,1.77,3.72,3.15,6.19,4.13,2.48.98,5.15,2.11,8.02,3.36,2.87,1.26,5.55,2.54,8.02,3.84s4.54,3.19,6.19,5.66c1.65,2.48,2.48,5.57,2.48,9.26s-1.3,6.84-3.89,9.44c-2.6,2.6-5.49,4.33-8.67,5.19-3.19.87-6.63,1.3-10.33,1.3-8.02,0-14.04-1.77-18.05-5.31l.71-.71c1.57,1.5,3.91,2.71,7.02,3.66,3.11.94,6.12,1.42,9.03,1.42,4.64,0,8.48-1.28,11.5-3.83,3.03-2.56,4.54-5.74,4.54-9.56s-1.14-6.88-3.42-9.2-5.06-4.13-8.32-5.43c-3.27-1.3-6.55-2.6-9.85-3.89-3.3-1.3-6.1-3.11-8.38-5.43s-3.42-5.01-3.42-8.08.71-5.56,2.12-7.49c1.42-1.93,3.3-3.28,5.66-4.07,4.01-1.34,8.02-2.01,12.04-2.01,6.76,0,12.04,1.26,15.81,3.78l-.59.83v-.02Z"/>
    <path class="cls-2" d="M309.73,24.8v-.94h2.48v-11.8h8.26v11.8h18.05v.94h-18.05v42.95c0,5.11.57,8.81,1.71,11.09,1.14,2.28,3.54,3.42,7.2,3.42s7.38-.75,11.15-2.24l.35.94c-3.93,1.5-8.44,2.24-13.51,2.24s-8.87-1.04-11.39-3.13c-2.52-2.08-3.78-6.23-3.78-12.45V24.79h-2.48.01Z"/>
    <path class="cls-2" d="M362.83,28.93v-2.48c-3.54,1.42-6.77,4.27-9.68,8.56s-4.45,8.32-4.6,12.09v35.75h-8.26V23.85h8.26v18.76c1.26-4.56,3.66-8.87,7.2-12.92s7.55-6.15,12.04-6.31h.47c1.57,0,2.89.53,3.95,1.59s1.59,2.38,1.59,3.95-.53,2.87-1.59,3.89-2.38,1.53-3.95,1.53-2.87-.51-3.89-1.53c-1.02-1.02-1.53-2.32-1.53-3.89h-.01Z"/>
    <path class="cls-2" d="M421.94,82.86c-5.35,0-9.01-1.02-10.97-3.07-1.81-1.73-2.71-3.22-2.71-4.48v-2.48c-3.86,7-10.03,10.5-18.53,10.5-9.91,0-15.54-4.48-16.87-13.45-.16-.94-.24-1.91-.24-2.89s.16-2.06.47-3.25c.31-1.18,1.22-2.48,2.71-3.89,2.99-2.83,9.56-4.56,19.71-5.19,2.52-.24,4.84-.35,6.96-.35s4.05.08,5.78.24v-19.59c-.16-.08-.16-.45,0-1.12s.02-1.53-.41-2.6c-.43-1.06-1-2.1-1.71-3.13-.71-1.02-1.97-1.91-3.78-2.66-1.81-.75-4.17-1.12-7.08-1.12s-6.31.53-10.21,1.59c-3.89,1.06-6.75,2.11-8.56,3.13l-.47-.83c7-3.22,14.12-4.84,21.36-4.84,8.1,0,13.45,1.46,16.05,4.37,2.04,2.28,3.07,4.68,3.07,7.2v39.53c0,2.28.45,4.03,1.36,5.25.9,1.22,1.83,1.87,2.77,1.95l1.3.24h3.66v.94h-3.66ZM391.62,82.39c4.17,0,7.92-1.43,11.27-4.31,3.34-2.87,5.13-5.64,5.37-8.32v-14.28c-2.12-.16-4.27-.24-6.43-.24s-4.31.12-6.43.35c-5.98.71-9.87,2.05-11.68,4.01-1.81,1.97-2.71,4.68-2.71,8.14,0,.63.04,1.34.12,2.12.71,8.34,4.21,12.51,10.5,12.51v.02Z"/>
    <path class="cls-2" d="M428.79,10.64c-.94-.94-1.42-2.12-1.42-3.54s.47-2.61,1.42-3.6c.94-.98,2.12-1.47,3.54-1.47s2.61.49,3.6,1.47c.98.99,1.47,2.18,1.47,3.6s-.49,2.6-1.47,3.54-2.18,1.42-3.6,1.42-2.6-.47-3.54-1.42ZM438.23,82.86c-3.23,0-5.68-.71-7.38-2.12s-2.58-2.83-2.65-4.25l-.12-2.01V23.86h8.26v50.62c0,2.28.45,4.03,1.36,5.25.9,1.22,1.79,1.87,2.66,1.95l1.42.24h3.66v.94h-7.21Z"/>
  </g>
  <g>
    <path class="cls-1" d="M449.51,83.32h-1.4L483.09,1.42l1.29-.58,29.48,82.48h-9.94l-9.13-25.74h-34.16l-11.11,25.74h0ZM479.46,14.05l-18.37,42.35h33.34l-14.97-42.35h0Z"/>
    <path class="cls-1" d="M516.2,24.82h8.19v14.51c1.33-3.59,3.78-6.98,7.37-10.18,3.59-3.2,7.64-4.8,12.17-4.8,15.83,0,23.75,9.28,23.75,27.85,0,21.06-10.22,31.59-30.65,31.59-3.67,0-7.88-.86-12.64-2.57v31.36h-8.19V24.83h0ZM543.81,25.28c-4.84,0-9.2,2.09-13.1,6.26-3.9,4.17-6.01,7.94-6.32,11.29v37.32c4.76,1.79,8.93,2.69,12.52,2.69,15.05,0,22.58-10.26,22.58-30.77,0-17.86-5.23-26.79-15.68-26.79h0Z"/>
    <path class="cls-1" d="M572.36,24.82h8.19v14.51c1.33-3.59,3.78-6.98,7.37-10.18,3.59-3.2,7.64-4.8,12.17-4.8,15.83,0,23.75,9.28,23.75,27.85,0,21.06-10.22,31.59-30.65,31.59-3.67,0-7.88-.86-12.64-2.57v31.36h-8.19V24.83h0ZM599.97,25.28c-4.84,0-9.2,2.09-13.1,6.26-3.9,4.17-6.01,7.94-6.32,11.29v37.32c4.76,1.79,8.93,2.69,12.52,2.69,15.05,0,22.58-10.26,22.58-30.77,0-17.86-5.23-26.79-15.68-26.79h0Z"/>
  </g>
</svg>